<svg width="420" height="104" viewBox="0 0 420 104" fill="none" xmlns="http://www.w3.org/2000/svg" role="img" aria-label="TechAyo overview logo">
  <defs>
    <linearGradient id="bg" x1="210" y1="0" x2="210" y2="104" gradientUnits="userSpaceOnUse">
      <stop stop-color="#FFFFFF"/>
      <stop offset="1" stop-color="#F7FAF8"/>
    </linearGradient>
  </defs>
  <rect x="1" y="1" width="418" height="102" rx="24" fill="url(#bg)"/>
  <rect x="1" y="1" width="418" height="102" rx="24" stroke="#D8E2DC"/>
  <g transform="translate(22 36)">
    <path d="M3.52284 6.36735C-1.18425 11.7888 -0.605111 19.9994 4.81623 24.7064C10.2376 29.4135 18.4482 28.8344 23.1552 23.413C27.8623 17.9916 27.2833 9.78105 21.8619 5.07396C16.4405 0.366943 8.22992 0.945938 3.52284 6.36735Z" fill="#D9FF43"/>
    <path d="M24.6751 1.19349C24.2774 1.27996 24.1775 1.78681 24.4848 2.05364C31.5742 8.20893 32.3315 18.946 26.1762 26.0354C25.9093 26.3427 26.0794 26.8305 26.4853 26.8603C30.4346 27.1501 34.4669 25.6383 37.2627 22.4181C41.9698 16.9968 41.3908 8.78616 35.9693 4.07908C32.7492 1.2832 28.5447 0.352249 24.6751 1.19349Z" fill="#0B3B35"/>
  </g>
  <path d="M91.564 44.020L91.564 59L87.364 59L87.364 44.020L80.392 44.020L80.392 40.240L98.536 40.240L98.536 44.020L91.564 44.020M107.496 59.280Q103.856 59.280 101.742 57.446Q99.628 55.612 99.628 52Q99.628 48.668 101.770 46.680Q103.912 44.692 107.412 44.692Q110.912 44.692 112.984 46.470Q115.056 48.248 115.056 51.496Q115.056 51.888 114.944 52.840L103.520 52.840Q103.604 54.492 104.472 55.206Q105.340 55.920 107.356 55.920Q109.176 55.920 109.946 55.458Q110.716 54.996 110.716 54.072L110.716 53.792L114.916 53.792L114.916 54.100Q114.916 56.396 112.872 57.838Q110.828 59.280 107.496 59.280M110.058 48.598Q109.176 47.968 107.328 47.968Q105.480 47.968 104.598 48.612Q103.716 49.256 103.576 50.628L111.024 50.628Q110.940 49.228 110.058 48.598M124.324 59.280Q120.712 59.280 118.570 57.306Q116.428 55.332 116.428 52Q116.428 48.640 118.570 46.666Q120.712 44.692 124.324 44.692Q127.712 44.692 129.812 46.358Q131.912 48.024 131.912 50.740L131.912 51.132L127.740 51.132L127.740 50.908Q127.740 48.472 124.240 48.472Q122.336 48.472 121.468 49.284Q120.600 50.096 120.600 52Q120.600 53.904 121.468 54.702Q122.336 55.500 124.240 55.500Q127.740 55.500 127.740 53.064L127.740 52.840L131.912 52.840L131.912 53.232Q131.912 55.948 129.812 57.614Q127.712 59.280 124.324 59.280M137.932 51.972L137.932 59L133.732 59L133.732 40.240L137.932 40.240L137.932 49.256L138.156 49.256Q138.520 47.268 139.920 45.980Q141.320 44.692 143.840 44.692Q146.584 44.692 148.026 46.274Q149.468 47.856 149.468 50.404L149.468 59L145.268 59L145.268 51.664Q145.268 49.900 144.442 49.186Q143.616 48.472 141.628 48.472Q139.584 48.472 138.758 49.312Q137.932 50.152 137.932 51.972M156.832 54.856L155.040 59L150.336 59L158.540 40.240L164.532 40.240L172.792 59L167.976 59L166.212 54.856L156.832 54.856M161.368 44.076L160.220 46.988L158.456 51.076L164.588 51.076L162.824 46.988L161.676 44.076L161.368 44.076M176.460 63.760L174.164 63.760L174.164 59.952L177.608 59.952Q178.952 59.952 179.372 59.056L172.512 44.972L177.272 44.972L180.240 51.384L181.416 54.688L181.696 54.688L182.816 51.356L185.476 44.972L190.152 44.972L183.208 60.008Q182.228 62.164 180.716 62.962Q179.204 63.760 176.460 63.760M204.446 57.292Q202.248 59.280 198.636 59.280Q195.024 59.280 192.826 57.292Q190.628 55.304 190.628 52Q190.628 48.668 192.826 46.680Q195.024 44.692 198.636 44.692Q202.248 44.692 204.446 46.680Q206.644 48.668 206.644 52Q206.644 55.304 204.446 57.292M195.668 54.716Q196.536 55.556 198.636 55.556Q200.736 55.556 201.604 54.716Q202.472 53.876 202.472 52Q202.472 50.124 201.590 49.256Q200.708 48.388 198.636 48.388Q196.536 48.388 195.668 49.242Q194.800 50.096 194.800 52Q194.800 53.876 195.668 54.716M213.476 54.100L213.476 59L208.072 59L208.072 54.100" fill="#0B3B35"/>
</svg>
