<svg width="1280" height="620" viewBox="0 0 1280 620" fill="none" xmlns="http://www.w3.org/2000/svg" role="img" aria-label="TechAyo digital products, applied AI and modern technology support">
  <defs>
    <linearGradient id="bg" x1="640" y1="0" x2="640" y2="620" gradientUnits="userSpaceOnUse">
      <stop stop-color="#F8FBF8"/>
      <stop offset="1" stop-color="#EDF4EF"/>
    </linearGradient>
    <linearGradient id="panel" x1="96" y1="76" x2="1184" y2="544" gradientUnits="userSpaceOnUse">
      <stop stop-color="#FFFFFF"/>
      <stop offset="1" stop-color="#F4F8F5"/>
    </linearGradient>
  </defs>

  <rect width="1280" height="620" rx="36" fill="url(#bg)"/>
  <circle cx="1038" cy="114" r="108" fill="#DCE7E1"/>
  <circle cx="210" cy="536" r="92" fill="#E6E0CF" fill-opacity="0.48"/>
  <circle cx="994" cy="530" r="134" fill="#D2E0DB" fill-opacity="0.28"/>

  <rect x="76" y="66" width="1128" height="486" rx="34" fill="url(#panel)" stroke="#D8E4DE" stroke-width="2"/>
  <path d="M510 96C692 62 878 116 992 226C1048 282 1088 348 1104 414" stroke="#D0DDD6" stroke-width="2" fill="none"/>

  <g transform="translate(154 108) scale(0.82)">
    <g transform="translate(1 9) scale(1.07143)">
      <path d="M3.52284 6.36735C-1.18425 11.7888 -0.605111 19.9994 4.81623 24.7064C10.2376 29.4135 18.4482 28.8344 23.1552 23.413C27.8623 17.9916 27.2833 9.78105 21.8619 5.07396C16.4405 0.366943 8.22992 0.945938 3.52284 6.36735Z" fill="#D9FF43"/>
      <path d="M24.6751 1.19349C24.2774 1.27996 24.1775 1.78681 24.4848 2.05364C31.5742 8.20893 32.3315 18.946 26.1762 26.0354C25.9093 26.3427 26.0794 26.8305 26.4853 26.8603C30.4346 27.1501 34.4669 25.6383 37.2627 22.4181C41.9698 16.9968 41.3908 8.78616 35.9693 4.07908C32.7492 1.2832 28.5447 0.352249 24.6751 1.19349Z" fill="#0B3B35"/>
    </g>
    <path d="M69.564 16.020L69.564 31L65.364 31L65.364 16.020L58.392 16.020L58.392 12.240L76.536 12.240L76.536 16.020L69.564 16.020M85.496 31.280Q81.856 31.280 79.742 29.446Q77.628 27.612 77.628 24Q77.628 20.668 79.770 18.680Q81.912 16.692 85.412 16.692Q88.912 16.692 90.984 18.470Q93.056 20.248 93.056 23.496Q93.056 23.888 92.944 24.840L81.520 24.840Q81.604 26.492 82.472 27.206Q83.340 27.920 85.356 27.920Q87.176 27.920 87.946 27.458Q88.716 26.996 88.716 26.072L88.716 25.792L92.916 25.792L92.916 26.100Q92.916 28.396 90.872 29.838Q88.828 31.280 85.496 31.280M88.058 20.598Q87.176 19.968 85.328 19.968Q83.480 19.968 82.598 20.612Q81.716 21.256 81.576 22.628L89.024 22.628Q88.940 21.228 88.058 20.598M102.324 31.280Q98.712 31.280 96.570 29.306Q94.428 27.332 94.428 24Q94.428 20.640 96.570 18.666Q98.712 16.692 102.324 16.692Q105.712 16.692 107.812 18.358Q109.912 20.024 109.912 22.740L109.912 23.132L105.740 23.132L105.740 22.908Q105.740 20.472 102.240 20.472Q100.336 20.472 99.468 21.284Q98.600 22.096 98.600 24Q98.600 25.904 99.468 26.702Q100.336 27.500 102.240 27.500Q105.740 27.500 105.740 25.064L105.740 24.840L109.912 24.840L109.912 25.232Q109.912 27.948 107.812 29.614Q105.712 31.280 102.324 31.280M115.932 23.972L115.932 31L111.732 31L111.732 12.240L115.932 12.240L115.932 21.256L116.156 21.256Q116.520 19.268 117.920 17.980Q119.320 16.692 121.840 16.692Q124.584 16.692 126.026 18.274Q127.468 19.856 127.468 22.404L127.468 31L123.268 31L123.268 23.664Q123.268 21.900 122.442 21.186Q121.616 20.472 119.628 20.472Q117.584 20.472 116.758 21.312Q115.932 22.152 115.932 23.972M134.832 26.856L133.040 31L128.336 31L136.540 12.240L142.532 12.240L150.792 31L145.976 31L144.212 26.856L134.832 26.856M139.368 16.076L138.220 18.988L136.456 23.076L142.588 23.076L140.824 18.988L139.676 16.076L139.368 16.076M154.460 35.760L152.164 35.760L152.164 31.952L155.608 31.952Q156.952 31.952 157.372 31.056L150.512 16.972L155.272 16.972L158.240 23.384L159.416 26.688L159.696 26.688L160.816 23.356L163.476 16.972L168.152 16.972L161.208 32.008Q160.228 34.164 158.716 34.962Q157.204 35.760 154.460 35.760M182.446 29.292Q180.248 31.280 176.636 31.280Q173.024 31.280 170.826 29.292Q168.628 27.304 168.628 24Q168.628 20.668 170.826 18.680Q173.024 16.692 176.636 16.692Q180.248 16.692 182.446 18.680Q184.644 20.668 184.644 24Q184.644 27.304 182.446 29.292M173.668 26.716Q174.536 27.556 176.636 27.556Q178.736 27.556 179.604 26.716Q180.472 25.876 180.472 24Q180.472 22.124 179.590 21.256Q178.708 20.388 176.636 20.388Q174.536 20.388 173.668 21.242Q172.800 22.096 172.800 24Q172.800 25.876 173.668 26.716M191.476 26.100L191.476 31L186.072 31L186.072 26.100" fill="#0B3B35"/>
  </g>

  <text x="154" y="276" fill="#103D37" font-family="Segoe UI, Arial, sans-serif" font-size="44" font-weight="700" letter-spacing="-0.035em">Digital products, applied AI,</text>
  <text x="154" y="332" fill="#103D37" font-family="Segoe UI, Arial, sans-serif" font-size="44" font-weight="700" letter-spacing="-0.035em">and modern technology support.</text>

  <text x="154" y="398" fill="#5C7477" font-family="Segoe UI, Arial, sans-serif" font-size="22" font-weight="500">Web platforms, intelligent workflows, operational tooling,</text>
  <text x="154" y="430" fill="#5C7477" font-family="Segoe UI, Arial, sans-serif" font-size="22" font-weight="500">and community-focused technology services.</text>

</svg>
