<svg width="1280" height="620" viewBox="0 0 1280 620" fill="none" xmlns="http://www.w3.org/2000/svg" role="img" aria-label="TechAyo digital products, applied AI and modern technology support">
  <defs>
    <linearGradient id="bg" x1="640" y1="0" x2="640" y2="620" gradientUnits="userSpaceOnUse">
      <stop stop-color="#F8FBF8"/>
      <stop offset="1" stop-color="#EDF4EF"/>
    </linearGradient>
    <linearGradient id="panel" x1="96" y1="76" x2="1184" y2="544" gradientUnits="userSpaceOnUse">
      <stop stop-color="#FFFFFF"/>
      <stop offset="1" stop-color="#F4F8F5"/>
    </linearGradient>
  </defs>

  <rect width="1280" height="620" rx="36" fill="url(#bg)"/>
  <circle cx="1038" cy="114" r="108" fill="#DCE7E1"/>
  <circle cx="210" cy="536" r="92" fill="#E6E0CF" fill-opacity="0.48"/>
  <circle cx="994" cy="530" r="134" fill="#D2E0DB" fill-opacity="0.28"/>

  <rect x="76" y="66" width="1128" height="486" rx="34" fill="url(#panel)" stroke="#D8E4DE" stroke-width="2"/>
  <path d="M510 96C692 62 878 116 992 226C1048 282 1088 348 1104 414" stroke="#D0DDD6" stroke-width="2" fill="none"/>

  <g transform="translate(154 112)">
    <g transform="scale(1.16)">
      <path d="M3.52284 6.36735C-1.18425 11.7888 -0.605111 19.9994 4.81623 24.7064C10.2376 29.4135 18.4482 28.8344 23.1552 23.413C27.8623 17.9916 27.2833 9.78105 21.8619 5.07396C16.4405 0.366943 8.22992 0.945938 3.52284 6.36735Z" fill="#D9FF43"/>
      <path d="M24.6751 1.19349C24.2774 1.27996 24.1775 1.78681 24.4848 2.05364C31.5742 8.20893 32.3315 18.946 26.1762 26.0354C25.9093 26.3427 26.0794 26.8305 26.4853 26.8603C30.4346 27.1501 34.4669 25.6383 37.2627 22.4181C41.9698 16.9968 41.3908 8.78616 35.9693 4.07908C32.7492 1.2832 28.5447 0.352249 24.6751 1.19349Z" fill="#0B3B35"/>
    </g>
    <text x="58" y="31" fill="#0B3B35" font-family="Segoe UI, Arial, sans-serif" font-size="34" font-weight="700">TechAyo</text>
  </g>

  <text x="154" y="276" fill="#103D37" font-family="Segoe UI, Arial, sans-serif" font-size="44" font-weight="700" letter-spacing="-0.035em">Digital products, applied AI,</text>
  <text x="154" y="332" fill="#103D37" font-family="Segoe UI, Arial, sans-serif" font-size="44" font-weight="700" letter-spacing="-0.035em">and modern technology support.</text>

  <text x="154" y="398" fill="#5C7477" font-family="Segoe UI, Arial, sans-serif" font-size="22" font-weight="500">Web platforms, intelligent workflows, operational tooling,</text>
  <text x="154" y="430" fill="#5C7477" font-family="Segoe UI, Arial, sans-serif" font-size="22" font-weight="500">and community-focused technology services.</text>

</svg>
