<svg width="1280" height="640" viewBox="0 0 1280 640" fill="none" xmlns="http://www.w3.org/2000/svg" role="img" aria-label="TechAyo digital products, applied AI and modern technology support">
  <defs>
    <linearGradient id="bg" x1="640" y1="0" x2="640" y2="640" gradientUnits="userSpaceOnUse">
      <stop stop-color="#F7FAF7"/>
      <stop offset="1" stop-color="#EAF1EC"/>
    </linearGradient>
    <linearGradient id="panel" x1="132" y1="86" x2="1148" y2="554" gradientUnits="userSpaceOnUse">
      <stop stop-color="#FFFFFF"/>
      <stop offset="1" stop-color="#F4F8F5"/>
    </linearGradient>
  </defs>

  <rect width="1280" height="640" rx="36" fill="url(#bg)"/>
  <rect x="52" y="56" width="1176" height="528" rx="34" fill="#F2F7F3" stroke="#E2EBE5" stroke-width="2"/>
  <rect x="126" y="94" width="1028" height="452" rx="32" fill="url(#panel)" stroke="#D9E3DD" stroke-width="2"/>

  <path d="M500 118C618 76 767 88 878 157C944 198 991 261 1016 336" stroke="#D4DED8" stroke-width="2" fill="none"/>
  <path d="M266 486H1014" stroke="#DDE7E1" stroke-width="2" stroke-linecap="round"/>

  <g transform="translate(204 164)">
    <g transform="scale(1.28)">
      <path d="M3.52284 6.36735C-1.18425 11.7888 -0.605111 19.9994 4.81623 24.7064C10.2376 29.4135 18.4482 28.8344 23.1552 23.413C27.8623 17.9916 27.2833 9.78105 21.8619 5.07396C16.4405 0.366943 8.22992 0.945938 3.52284 6.36735Z" fill="#D9FF43"/>
      <path d="M24.6751 1.19349C24.2774 1.27996 24.1775 1.78681 24.4848 2.05364C31.5742 8.20893 32.3315 18.946 26.1762 26.0354C25.9093 26.3427 26.0794 26.8305 26.4853 26.8603C30.4346 27.1501 34.4669 25.6383 37.2627 22.4181C41.9698 16.9968 41.3908 8.78616 35.9693 4.07908C32.7492 1.2832 28.5447 0.352249 24.6751 1.19349Z" fill="#0B3B35"/>
    </g>
    <text x="96" y="36" fill="#0B3B35" font-family="Segoe UI, Arial, sans-serif" font-size="34" font-weight="700">TechAyo</text>
  </g>

  <text x="204" y="300" fill="#103D37" font-family="Segoe UI, Arial, sans-serif" font-size="58" font-weight="700" letter-spacing="-0.03em">Digital products, applied AI,</text>
  <text x="204" y="370" fill="#103D37" font-family="Segoe UI, Arial, sans-serif" font-size="58" font-weight="700" letter-spacing="-0.03em">and modern technology support.</text>

  <text x="204" y="438" fill="#59727C" font-family="Segoe UI, Arial, sans-serif" font-size="26" font-weight="500">Web platforms, intelligent workflows, operational tooling,</text>
  <text x="204" y="474" fill="#59727C" font-family="Segoe UI, Arial, sans-serif" font-size="26" font-weight="500">and community-focused technology services.</text>
</svg>
