<svg width="1280" height="420" viewBox="0 0 1280 420" fill="none" xmlns="http://www.w3.org/2000/svg" role="img" aria-label="TechAyo digital products, AI systems and modern support">
  <defs>
    <linearGradient id="bg" x1="640" y1="0" x2="640" y2="420" gradientUnits="userSpaceOnUse">
      <stop stop-color="#F7FAF7"/>
      <stop offset="1" stop-color="#E7EEE9"/>
    </linearGradient>
    <linearGradient id="panel" x1="160" y1="74" x2="1096" y2="346" gradientUnits="userSpaceOnUse">
      <stop stop-color="#FFFFFF" stop-opacity="0.94"/>
      <stop offset="1" stop-color="#F4F8F5" stop-opacity="0.82"/>
    </linearGradient>
    <filter id="shadow" x="92" y="36" width="1096" height="360" filterUnits="userSpaceOnUse" color-interpolation-filters="sRGB">
      <feOffset dy="16"/>
      <feGaussianBlur stdDeviation="22"/>
      <feColorMatrix type="matrix" values="0 0 0 0 0.043 0 0 0 0 0.145 0 0 0 0 0.129 0 0 0 0.10 0"/>
      <feBlend in2="SourceGraphic"/>
    </filter>
  </defs>

  <rect width="1280" height="420" rx="34" fill="url(#bg)"/>
  <g filter="url(#shadow)">
    <rect x="116" y="64" width="1048" height="292" rx="34" fill="url(#panel)"/>
    <rect x="116.5" y="64.5" width="1047" height="291" rx="33.5" stroke="#D9E3DD"/>
  </g>

  <path d="M520 72C616 28 748 44 840 116C918 177 956 270 930 348" stroke="#D9E3DD" stroke-width="1.5"/>

  <g transform="translate(176 132)">
    <g>
      <path d="M3.52284 6.36735C-1.18425 11.7888 -0.605111 19.9994 4.81623 24.7064C10.2376 29.4135 18.4482 28.8344 23.1552 23.413C27.8623 17.9916 27.2833 9.78105 21.8619 5.07396C16.4405 0.366943 8.22992 0.945938 3.52284 6.36735Z" fill="#D9FF43"/>
      <path d="M24.6751 1.19349C24.2774 1.27996 24.1775 1.78681 24.4848 2.05364C31.5742 8.20893 32.3315 18.946 26.1762 26.0354C25.9093 26.3427 26.0794 26.8305 26.4853 26.8603C30.4346 27.1501 34.4669 25.6383 37.2627 22.4181C41.9698 16.9968 41.3908 8.78616 35.9693 4.07908C32.7492 1.2832 28.5447 0.352249 24.6751 1.19349Z" fill="#0B3B35"/>
    </g>
    <text x="72" y="32" fill="#0B3B35" font-family="Segoe UI, Arial, sans-serif" font-size="28" font-weight="700">TechAyo</text>
  </g>

  <text x="176" y="218" fill="#0B3B35" font-family="Segoe UI, Arial, sans-serif" font-size="30" font-weight="700">Digital products, AI systems, modern support</text>
  <text x="176" y="258" fill="#496779" font-family="Segoe UI, Arial, sans-serif" font-size="18" font-weight="400">Web platforms, AI R&amp;D, IT support, community technology services</text>

  <g transform="translate(176 294)">
    <rect width="134" height="34" rx="17" fill="#FFFFFF" stroke="#DDE6E0"/>
    <text x="67" y="23" text-anchor="middle" fill="#0B3B35" font-family="Segoe UI, Arial, sans-serif" font-size="14" font-weight="700">techayo.co.uk</text>
    <rect x="150" width="92" height="34" rx="17" fill="#D9FF43"/>
    <text x="196" y="23" text-anchor="middle" fill="#0B3B35" font-family="Segoe UI, Arial, sans-serif" font-size="14" font-weight="700">AI-native</text>
    <rect x="258" width="154" height="34" rx="17" fill="#0B3B35"/>
    <g transform="translate(276 2.5) scale(0.82143)">
      <path d="M3.52284 6.36735C-1.18425 11.7888 -0.605111 19.9994 4.81623 24.7064C10.2376 29.4135 18.4482 28.8344 23.1552 23.413C27.8623 17.9916 27.2833 9.78105 21.8619 5.07396C16.4405 0.366943 8.22992 0.945938 3.52284 6.36735Z" fill="#D9FF43"/>
      <path d="M24.6751 1.19349C24.2774 1.27996 24.1775 1.78681 24.4848 2.05364C31.5742 8.20893 32.3315 18.946 26.1762 26.0354C25.9093 26.3427 26.0794 26.8305 26.4853 26.8603C30.4346 27.1501 34.4669 25.6383 37.2627 22.4181C41.9698 16.9968 41.3908 8.78616 35.9693 4.07908C32.7492 1.2832 28.5447 0.352249 24.6751 1.19349Z" fill="#F7FFF6"/>
    </g>
    <text x="348" y="23" text-anchor="middle" fill="#F7FFF6" font-family="Segoe UI, Arial, sans-serif" font-size="14" font-weight="700">techayoDEV</text>
  </g>

  <g transform="translate(806 112)">
    <rect width="246" height="196" rx="26" fill="#FFFFFF" fill-opacity="0.88" stroke="#D9E3DD"/>
    <rect x="24" y="24" width="198" height="34" rx="14" fill="#F5F8F5" stroke="#E4ECE6"/>
    <circle cx="44" cy="41" r="5" fill="#B9C9C1"/>
    <circle cx="62" cy="41" r="5" fill="#D9FF43"/>
    <circle cx="80" cy="41" r="5" fill="#0B3B35"/>

    <text x="24" y="92" fill="#0B3B35" font-family="Segoe UI, Arial, sans-serif" font-size="14" font-weight="800">WORKFLOW HEALTH</text>
    <rect x="24" y="108" width="198" height="11" rx="6" fill="#DDE6E0"/>
    <rect x="24" y="108" width="144" height="11" rx="6" fill="#0B3B35"/>

    <text x="24" y="154" fill="#0B3B35" font-family="Segoe UI, Arial, sans-serif" font-size="26" font-weight="700">Delivery ops</text>
    <text x="24" y="178" fill="#607485" font-family="Segoe UI, Arial, sans-serif" font-size="14">Automate, support, secure, release.</text>
</g>
</svg>
